<?xml version="1.0" standalone="no"?>
<!DOCTYPE svg PUBLIC "-//W3C//DTD SVG 20010904//EN"
 "http://www.w3.org/TR/2001/REC-SVG-20010904/DTD/svg10.dtd">
<svg version="1.0" xmlns="http://www.w3.org/2000/svg"
 width="200.000000pt" height="200.000000pt" viewBox="0 0 200.000000 200.000000"
 preserveAspectRatio="xMidYMid meet">

<g transform="translate(0.000000,200.000000) scale(0.100000,-0.100000)"
fill="#000000" stroke="none">
<path d="M1166 934 c-127 -126 -233 -224 -241 -222 -8 2 -67 55 -132 119 -65
63 -123 118 -130 122 -8 5 -10 -14 -7 -75 3 -47 1 -89 -5 -98 -17 -24 -161 -5
-161 22 0 4 -6 8 -14 8 -7 0 -19 6 -25 14 -6 8 -20 16 -31 19 -18 5 -19 1 -13
-36 3 -23 9 -44 14 -47 4 -3 10 -16 14 -30 11 -45 100 -164 157 -210 70 -56
163 -103 250 -125 77 -20 299 -18 320 3 7 7 20 12 31 12 23 0 132 54 177 88
99 75 200 223 221 322 4 19 12 59 18 89 22 107 7 222 -31 242 -15 8 -18 6 -18
-16 0 -28 -12 -32 -30 -10 -9 11 -25 13 -60 9 -35 -4 -52 -1 -63 11 -14 14
-37 -6 -241 -211z"/>
</g>
</svg>
